#N canvas 461 99 524 744 12;
#X obj 87 76 route 0;
#X msg 87 48 \$2 \$3 \$1;
#X obj 87 564 f;
#X text 154 49 svh;
#X obj 370 178 * 6;
#X obj 351 225 % 6;
#X obj 319 202 t f f;
#X msg 319 178 0;
#X text 379 225 i;
#X obj 319 276 -;
#X obj 133 513 *;
#X obj 133 181 - 1;
#X obj 133 208 * -1;
#X obj 170 514 *;
#X obj 170 411 - 1;
#X obj 170 436 * -1;
#X obj 170 389 *;
#X obj 319 300 t f f;
#X obj 351 326 - 1;
#X obj 351 349 * -1;
#X obj 207 515 *;
#X obj 207 411 - 1;
#X obj 207 436 * -1;
#X obj 207 389 *;
#X obj 133 154 t f f f, f 11;
#N canvas 623 395 564 412 select 0;
#X obj 322 43 inlet;
#X obj 209 364 outlet;
#X obj 48 64 t b l, f 20;
#X obj 48 129 i;
#X obj 48 161 select 0 1 2 3 4 5;
#X obj 48 255 f;
#X obj 128 255 f;
#X obj 208 255 f;
#X obj 288 255 f;
#X obj 368 255 f;
#X obj 448 255 f;
#X obj 184 162 unpack f f f f;
#X obj 48 285 pack f f f;
#X obj 128 285 pack f f f;
#X obj 208 285 pack f f f;
#X obj 288 285 pack f f f;
#X obj 368 285 pack f f f;
#X obj 448 285 pack f f f;
#X text 47 13 p q t v;
#X obj 48 35 inlet;
#X connect 0 0 3 1;
#X connect 2 0 3 0;
#X connect 2 1 11 0;
#X connect 3 0 4 0;
#X connect 4 0 5 0;
#X connect 4 1 6 0;
#X connect 4 2 7 0;
#X connect 4 3 8 0;
#X connect 4 4 9 0;
#X connect 4 5 10 0;
#X connect 5 0 12 0;
#X connect 6 0 13 0;
#X connect 7 0 14 0;
#X connect 8 0 15 0;
#X connect 9 0 16 0;
#X connect 10 0 17 0;
#X connect 11 0 7 1;
#X connect 11 0 8 1;
#X connect 11 0 12 2;
#X connect 11 0 13 2;
#X connect 11 0 16 1;
#X connect 11 0 17 1;
#X connect 11 1 6 1;
#X connect 11 1 15 1;
#X connect 11 1 17 2;
#X connect 11 2 9 1;
#X connect 11 2 12 1;
#X connect 11 2 14 2;
#X connect 11 3 5 1;
#X connect 11 3 10 1;
#X connect 11 3 13 1;
#X connect 11 3 14 1;
#X connect 11 3 15 2;
#X connect 11 3 16 2;
#X connect 12 0 1 0;
#X connect 13 0 1 0;
#X connect 14 0 1 0;
#X connect 15 0 1 0;
#X connect 16 0 1 0;
#X connect 17 0 1 0;
#X connect 19 0 2 0;
#X restore 133 572 pd select;
#X f 28;
#X msg 87 633 \$1 \$1 \$1;
#X obj 87 605 clip 0 1;
#X obj 133 129 clip 0 1;
#X obj 242 131 clip 0 1;
#X obj 319 130 clip 0 1;
#X obj 319 154 select 1;
#X obj 242 474 t f f f f;
#X obj 327 249 t f f;
#X obj 133 104 unpack float float float, f 27;
#X obj 133 545 pack f f f f, f 16;
#X obj 87 20 inlet;
#X text 136 20 hsv;
#X obj 133 673 outlet;
#X text 183 673 rgb;
#X text 214 39 A helper abstraction taken from the GEM hsv2rgb-help.pd file., f 31;
#X connect 0 0 2 0;
#X connect 0 1 34 0;
#X connect 1 0 0 0;
#X connect 2 0 27 0;
#X connect 4 0 6 0;
#X connect 5 0 33 0;
#X connect 6 0 9 0;
#X connect 6 1 5 0;
#X connect 7 0 6 0;
#X connect 9 0 17 0;
#X connect 10 0 35 0;
#X connect 11 0 12 0;
#X connect 12 0 10 0;
#X connect 13 0 35 1;
#X connect 14 0 15 0;
#X connect 15 0 13 0;
#X connect 16 0 14 0;
#X connect 17 0 16 1;
#X connect 17 1 18 0;
#X connect 18 0 19 0;
#X connect 19 0 23 1;
#X connect 20 0 35 2;
#X connect 21 0 22 0;
#X connect 22 0 20 0;
#X connect 23 0 21 0;
#X connect 24 0 11 0;
#X connect 24 1 16 0;
#X connect 24 2 23 0;
#X connect 25 0 38 0;
#X connect 26 0 38 0;
#X connect 27 0 26 0;
#X connect 28 0 24 0;
#X connect 29 0 32 0;
#X connect 30 0 31 0;
#X connect 31 0 7 0;
#X connect 31 1 4 0;
#X connect 32 0 10 1;
#X connect 32 1 13 1;
#X connect 32 2 20 1;
#X connect 32 3 35 3;
#X connect 33 0 25 1;
#X connect 33 1 9 1;
#X connect 34 0 28 0;
#X connect 34 1 29 0;
#X connect 34 2 30 0;
#X connect 35 0 25 0;
#X connect 36 0 1 0;
