#N canvas 461 99 844 696 12;
#X obj 82 27 loadbang;
#X msg 82 321 \$1 1 1;
#X obj 82 54 tgl 19 0 empty empty empty 17 7 0 10 #dfdfdf #000000 #000000 0 1;
#X obj 82 143 line;
#X obj 82 85 metro 2000;
#X obj 132 634 dac~ 1 2 3 4 5 6, f 69;
#X msg 182 322 \$1 1 1;
#X obj 182 208 + 16.6667;
#X obj 182 234 % 100;
#X obj 82 256 / 100;
#X obj 182 259 / 100;
#X obj 282 231 % 100;
#X obj 282 256 / 100;
#X msg 282 321 \$1 1 1;
#X obj 382 232 % 100;
#X obj 382 257 / 100;
#X msg 382 322 \$1 1 1;
#X obj 482 233 % 100;
#X obj 482 258 / 100;
#X msg 482 323 \$1 1 1;
#X obj 583 233 % 100;
#X obj 583 258 / 100;
#X msg 583 323 \$1 1 1;
#X obj 282 205 + 33.3334;
#X obj 482 207 + 66.6667;
#X obj 583 207 + 83.3334;
#X obj 82 174 t f f f f f f, f 72;
#X obj 382 206 + 50;
#X obj 93 288 s out1;
#X obj 132 523 r out1;
#X obj 228 523 r out2;
#X obj 420 523 r out4;
#X obj 325 523 r out3;
#X obj 516 523 r out5;
#X obj 612 523 r out6;
#X obj 193 289 s out2;
#X obj 290 290 s out3;
#X obj 393 290 s out4;
#X obj 496 293 s out5;
#X obj 603 291 s out6;
#X obj 228 549 cos~;
#X obj 324 549 cos~;
#X obj 420 549 cos~;
#X obj 516 549 cos~;
#X obj 612 549 cos~;
#X obj 132 578 +~ 1;
#X obj 132 549 cos~;
#X obj 228 578 +~ 1;
#X obj 324 578 +~ 1;
#X obj 420 578 +~ 1;
#X obj 516 578 +~ 1;
#X obj 612 578 +~ 1;
#X msg 82 114 100 \, 0 2000;
#X obj 132 605 *~ 5;
#X obj 228 605 *~ 5;
#X obj 324 605 *~ 5;
#X obj 420 605 *~ 5;
#X obj 516 605 *~ 5;
#X obj 612 605 *~ 5;
#X obj 250 56 loadbang;
#X obj 382 464 send toHost;
#X obj 82 350 abs/hsv2rgb;
#X obj 182 350 abs/hsv2rgb;
#X obj 282 350 abs/hsv2rgb;
#X obj 382 350 abs/hsv2rgb;
#X obj 482 350 abs/hsv2rgb;
#X obj 583 350 abs/hsv2rgb;
#X text 678 343 Using a helper abstraction, f 14;
#X msg 82 391 S1 \$1 \$2 \$3 \, L1 \$1 \$2 \$3, f 12;
#X msg 182 391 S2 \$1 \$2 \$3 \, L2 \$1 \$2 \$3, f 12;
#X msg 282 391 S3 \$1 \$2 \$3 \, L3 \$1 \$2 \$3, f 12;
#X msg 382 391 S4 \$1 \$2 \$3 \, L4 \$1 \$2 \$3, f 12;
#X msg 482 391 S5 \$1 \$2 \$3 \, L5 \$1 \$2 \$3, f 12;
#X msg 583 391 S6 \$1 \$2 \$3 \, L6 \$1 \$2 \$3, f 12;
#X msg 250 86 \; toHost display Beautiful colors...;
#X connect 0 0 2 0;
#X connect 1 0 61 0;
#X connect 2 0 4 0;
#X connect 3 0 26 0;
#X connect 4 0 52 0;
#X connect 6 0 62 0;
#X connect 7 0 8 0;
#X connect 8 0 10 0;
#X connect 9 0 1 0;
#X connect 9 0 28 0;
#X connect 10 0 6 0;
#X connect 10 0 35 0;
#X connect 11 0 12 0;
#X connect 12 0 13 0;
#X connect 12 0 36 0;
#X connect 13 0 63 0;
#X connect 14 0 15 0;
#X connect 15 0 16 0;
#X connect 15 0 37 0;
#X connect 16 0 64 0;
#X connect 17 0 18 0;
#X connect 18 0 19 0;
#X connect 18 0 38 0;
#X connect 19 0 65 0;
#X connect 20 0 21 0;
#X connect 21 0 22 0;
#X connect 21 0 39 0;
#X connect 22 0 66 0;
#X connect 23 0 11 0;
#X connect 24 0 17 0;
#X connect 25 0 20 0;
#X connect 26 0 9 0;
#X connect 26 1 7 0;
#X connect 26 2 23 0;
#X connect 26 3 27 0;
#X connect 26 4 24 0;
#X connect 26 5 25 0;
#X connect 27 0 14 0;
#X connect 29 0 46 0;
#X connect 30 0 40 0;
#X connect 31 0 42 0;
#X connect 32 0 41 0;
#X connect 33 0 43 0;
#X connect 34 0 44 0;
#X connect 40 0 47 0;
#X connect 41 0 48 0;
#X connect 42 0 49 0;
#X connect 43 0 50 0;
#X connect 44 0 51 0;
#X connect 45 0 53 0;
#X connect 46 0 45 0;
#X connect 47 0 54 0;
#X connect 48 0 55 0;
#X connect 49 0 56 0;
#X connect 50 0 57 0;
#X connect 51 0 58 0;
#X connect 52 0 3 0;
#X connect 53 0 5 0;
#X connect 54 0 5 1;
#X connect 55 0 5 2;
#X connect 56 0 5 3;
#X connect 57 0 5 4;
#X connect 58 0 5 5;
#X connect 59 0 74 0;
#X connect 61 0 68 0;
#X connect 62 0 69 0;
#X connect 63 0 70 0;
#X connect 64 0 71 0;
#X connect 65 0 72 0;
#X connect 66 0 73 0;
#X connect 68 0 60 0;
#X connect 69 0 60 0;
#X connect 70 0 60 0;
#X connect 71 0 60 0;
#X connect 72 0 60 0;
#X connect 73 0 60 0;
