#N canvas 475 73 534 529 12;
#X obj 107 104 dac~ 1 2 3 4 5 6;
#X obj 109 38 adc~ 1 2 3 4 5 6;
#X obj 84 213 route K1 K2 K3 K4 K5 K6;
#X obj 242 257 route S1 S2 S3 S4 S5 S6;
#X text 262 211 knobs;
#X text 417 255 buttons;
#X obj 101 302 loadbang;
#X text 235 31 receive audio from the module input, f 20;
#X text 237 96 send audio to the module output, f 19;
#X msg 101 334 \; toHost L1 1 0 0 \, S1 1 0 0 \, display this text will print, f 16;
#X text 248 306 Use "toRack" to send messages to the Host module. "L1" \, "L2" \, etc send RGB values to leds \, while "S1" \, "S2" send RGB values to the switch button and the 'display' message prints to the module's console., f 24;
#X text 215 164 receive control data from the Host module, f 20;
#X obj 84 173 receive fromHost;
#X text 103 461 You can use message boxes or:;
#X obj 321 462 send toHost;
#X connect 2 6 3 0;
#X connect 6 0 9 0;
#X connect 12 0 2 0;
