#N canvas 475 73 588 521 12;
#X obj 162 115 dac~ 1 2 3 4 5 6;
#X obj 164 49 adc~ 1 2 3 4 5 6;
#X obj 87 213 route K1 K2 K3 K4 K5 K6;
#X obj 245 257 route S1 S2 S3 S4 S5 S6;
#X text 265 211 knobs;
#X text 420 255 buttons;
#X obj 87 176 r fromRack;
#X obj 105 317 loadbang;
#X obj 105 411 print toRack;
#X msg 105 349 L1 1 0 0 \, S1 1 0 0 \, display this text will print, f 19;
#X text 172 176 receive control data from the module;
#X text 290 42 receive audio from the module input, f 20;
#X text 292 107 send audio to the module output, f 19;
#X text 283 312 Set control's colors.;
#X text 274 337 Use [print] to send values to the module. "L1" \, "L2" \, etc send RGB values to leds \, while "S1" \, "S2" send RGB values to the switch button., f 28;
#X text 272 418 The 'display' message prints to the module's console., f 28;
#X connect 2 6 3 0;
#X connect 6 0 2 0;
#X connect 7 0 9 0;
#X connect 9 0 8 0;
