#N canvas 602 163 452 542 12;
#X obj 241 91 route K1;
#X obj 110 359 osc~;
#X msg 214 412 display Freq: \$1 Hz;
#X obj 177 63 adc~ 1;
#X obj 214 259 loadbang;
#X obj 214 288 tgl 19 0 empty empty empty 17 7 0 10 #dfdfdf #000000 #000000 0 1;
#X obj 214 320 metro 50;
#X obj 214 357 snapshot~;
#X obj 214 383 change;
#X obj 177 146 +~;
#X obj 241 117 * 10;
#X obj 241 142 - 5;
#X obj 110 243 *~ 261.626;
#X obj 110 165 sig~ 2;
#X obj 110 469 dac~ 1;
#X obj 110 404 *~ 5;
#X obj 110 209 pow~, f 10;
#X text 97 35 FM with CV signal from IN1, f 17;
#X obj 214 444 send toHost;
#X msg 241 168 \$1 10;
#X obj 241 192 line~;
#X obj 241 63 receive fromHost;
#X connect 0 0 10 0;
#X connect 1 0 15 0;
#X connect 2 0 18 0;
#X connect 3 0 9 0;
#X connect 4 0 5 0;
#X connect 5 0 6 0;
#X connect 6 0 7 0;
#X connect 7 0 8 0;
#X connect 8 0 2 0;
#X connect 9 0 16 1;
#X connect 10 0 11 0;
#X connect 11 0 19 0;
#X connect 12 0 1 0;
#X connect 12 0 7 0;
#X connect 13 0 16 0;
#X connect 15 0 14 0;
#X connect 16 0 12 0;
#X connect 19 0 20 0;
#X connect 20 0 9 1;
#X connect 21 0 0 0;
